<svg width="25" height="29" viewBox="0 0 25 29" fill="none" xmlns="http://www.w3.org/2000/svg">
<g clip-path="url(#clip0_4_22)">
<path d="M9.55322 26C10.122 26 10.583 25.4777 10.583 24.8334C10.583 24.189 10.122 23.6667 9.55322 23.6667C8.98449 23.6667 8.52344 24.189 8.52344 24.8334C8.52344 25.4777 8.98449 26 9.55322 26Z" stroke="#3D3D3D" stroke-width="2" stroke-linecap="round" stroke-linejoin="round"/>
<path d="M20.8808 26C21.4496 26 21.9106 25.4777 21.9106 24.8334C21.9106 24.189 21.4496 23.6667 20.8808 23.6667C20.3121 23.6667 19.851 24.189 19.851 24.8334C19.851 25.4777 20.3121 26 20.8808 26Z" stroke="#3D3D3D" stroke-width="2" stroke-linecap="round" stroke-linejoin="round"/>
<path d="M1.31494 1.50006H5.43408L8.1939 17.1217C8.28807 17.6589 8.54599 18.1413 8.92252 18.4847C9.29905 18.8281 9.77019 19.0106 10.2535 19.0001H20.263C20.7462 19.0106 21.2174 18.8281 21.5939 18.4847C21.9704 18.1413 22.2284 17.6589 22.3225 17.1217L23.9702 7.33339H6.46386" stroke="#3D3D3D" stroke-width="2" stroke-linecap="round" stroke-linejoin="round"/>
</g>
<defs>
<clipPath id="clip0_4_22">
<rect width="24.7148" height="28" fill="white" transform="translate(0.285156 0.333374)"/>
</clipPath>
</defs>
</svg>
